# xmcd CD database file
#
# Track frame offsets:
#	150
#	28804
#	48232
#	70135
#	95917
#	112385
#	134155
#	152305
#	176233
#	201155
#	220506
#	239123
#	265757
#	288143
#	304510
#
# Disc length: 4426 seconds
#
# Revision: 3
# Processed by: cddbd v1.5.2PL0 Copyright (c) Steve Scherf et al.
# Submitted via: CDex 1.51
#
DISCID=e411480f
DTITLE=Martin Solveig - SO FAR
DYEAR=2006
DGENRE=New Age
TTITLE0=Rocking Music
TTITLE1=Everybody
TTITLE2=Madan
TTITLE3=Dalila
TTITLE4=Rejection
TTITLE5=Something Better
TTITLE6=I got a woman
TTITLE7=Jealousy
TTITLE8=Cabo Parano
TTITLE9=I'm a good man
TTITLE10=Something about you
TTITLE11=Linda
TTITLE12=Dry
TTITLE13=Someday
TTITLE14=Heart of Africa
EXTD=YEAR: 2006
EXTT0=
EXTT1=
EXTT2=
EXTT3=
EXTT4=
EXTT5=
EXTT6=
EXTT7=
EXTT8=
EXTT9=
EXTT10=
EXTT11=
EXTT12=
EXTT13=
EXTT14=
PLAYORDER=
